PathFileType	4	(X/Y/Z)	55_2_67_p1_0-430.trc
DataRate	CameraRate	NumFrames	NumMarkers	Units	OrigDataRate	OrigDataStartFrame	OrigNumFrames
60.0	60.0	7	27	m	60.0	107	431
Frame#	Time	RHip			RKnee			RAnkle			RBigToe			RSmallToe			RHeel			LHip			LKnee			LAnkle			LBigToe			LSmallToe			LHeel			Neck			Head			Nose			RShoulder			RElbow			RWrist			RThumb			RIndex			RPinky			LShoulder			LElbow			LWrist			LThumb			LIndex			LPinky			
		X1	Y1	Z1	X2	Y2	Z2	X3	Y3	Z3	X4	Y4	Z4	X5	Y5	Z5	X6	Y6	Z6	X7	Y7	Z7	X8	Y8	Z8	X9	Y9	Z9	X10	Y10	Z10	X11	Y11	Z11	X12	Y12	Z12	X13	Y13	Z13	X14	Y14	Z14	X15	Y15	Z15	X16	Y16	Z16	X17	Y17	Z17	X18	Y18	Z18	X19	Y19	Z19	X20	Y20	Z20	X21	Y21	Z21	X22	Y22	Z22	X23	Y23	Z23	X24	Y24	Z24	X25	Y25	Z25	X26	Y26	Z26	X27	Y27	Z27	
107	1.7833333333333334	0.33546167713771885	0.5539892606330956	0.7022571463921758	0.35071662710158785	0.5880828392639019	1.1896894090749353	0.34883975786732335	0.6167422921061667	1.6358596790401088	0.2781557362439146	0.41022247960999947	1.6343240250092053	0.34353022185565996	0.4447931195624335	1.6527500280732892	0.32863461630610613	0.7048240871332876	1.7155805938567676	0.1262786033579689	0.5879139443809888	0.7191472493938882	0.11100480145952313	0.5938788619668353	1.1975230539147323	0.11495141226811036	0.6017361951736196	1.6281438495683163	0.13119965634776157	0.4460711098402122	1.6656905055227582	0.07520067655685676	0.46819389425213553	1.665939968721945	0.133547866538277	0.652904515866808	1.7016882745381343	0.2271957114034287	0.584699214247028	0.2095827803384067	0.22768104938128142	0.5555299089739253	-0.03585959262925747	0.21962520362594307	0.4921228507398456	0.08344756718426974	0.3805654466949996	0.5750639542813851	0.2947922389495301	0.43116884229973107	0.6064061892053793	0.5834477309985776	0.4111453566864474	0.4734290871026457	0.8117720606427437	0.3373626636722542	0.42266171431882227	0.9228818335204321	0.3657028676868284	0.4501136266789139	0.9612782249968385	0.41200293101576746	0.4659063274147256	0.9465402293020759	0.07985405006082051	0.6227380848461113	0.2989679994051787	0.022098350648722138	0.5985299785578072	0.5560243253868858	0.025153749766642298	0.5128840698117186	0.7946467920089143	0.07060943091680055	0.48927887569015827	0.9045425967359085	0.05407433634062526	0.48626945221798534	0.9294475223961196	0.004699780401090997	0.5320185955080037	0.9319302709165148
108	1.8	0.33718758981920854	0.5802102429423327	0.7111669143630779	0.35073154336236234	0.5881109925556814	1.1896695152149324	0.34885018376102295	0.6167092160444128	1.6359468492058493	0.27418225881930797	0.40022363100879826	1.6268502346401053	0.34267631822714406	0.4449557642561028	1.657369771167892	0.32870392366110535	0.704728901348186	1.7155417158657151	0.12244433065109826	0.6015423038513192	0.7239322774390528	0.11101456691717472	0.5939519735252676	1.1976359783966648	0.11493378274079123	0.6016088734661085	1.6281345933437779	0.13094547973006185	0.4456954428137998	1.665264330881099	0.07868754452640891	0.48077454252521085	1.6745449756873416	0.13777114337542212	0.6653521666595011	1.7099125228761696	0.22716813133369881	0.5845213848117878	0.20953591816946146	0.22396328329379145	0.5446463309406521	-0.036466822340141335	0.21957628597593024	0.49193716589001135	0.08346075632942355	0.38057735455819064	0.575225250150442	0.2947804935351797	0.43135843485723097	0.60523796299009	0.5874115154496586	0.4115448274483757	0.47379242282418343	0.808454411102578	0.3374305166340713	0.4224593288180388	0.9226046094636218	0.3657510842004195	0.45018968580231056	0.9612820506675347	0.40906617144413143	0.48150474462766596	0.9496204617190103	0.07984003426612012	0.6231367629342054	0.2952393366999573	0.022045902964057368	0.5988246876923526	0.5563034992495095	0.02576394408453419	0.5135496289503599	0.7991709388550684	0.0712851192857753	0.49001342812460974	0.9090852358209733	0.0541260494258719	0.4861753434261428	0.929529528509257	0.009428298072283054	0.5205914610921334	0.9265635099881765
109	1.8166666666666667	0.33715225282453	0.5802048572866894	0.7110918550552634	0.35072568520595676	0.5880943692002654	1.1894533069786364	0.3500139243993891	0.6177905785697544	1.6417044276521235	0.2781125341115124	0.41005406253752275	1.634349371898761	0.3433250758735965	0.444068506073014	1.6525605844381575	0.3286153395667415	0.7045951256957459	1.7155844006819945	0.12248763936263284	0.6015599032642346	0.7238104563726258	0.11100981111648021	0.5938430919112356	1.1975555306979024	0.11492179531799801	0.6016306004963171	1.6281326665525795	0.1311128271617989	0.44575333131472383	1.665454105988563	0.0787384214108512	0.4807757345626842	1.6746171792082785	0.13357003377250096	0.6531291652819181	1.7017643349775033	0.22715755418551983	0.5845397613118313	0.20955496510458546	0.22393736893889923	0.5445233873728422	-0.03639871353270903	0.21571535242375176	0.48171481445672765	0.08253074993748684	0.3803493062405922	0.5746123767107253	0.2983278512650079	0.43131904023530027	0.6051560216926328	0.5874519833701384	0.4115826273383513	0.47377423868473906	0.8085386068335463	0.33673708530874913	0.4219464340231583	0.9185478486560533	0.36575552670721106	0.4504285199040445	0.9613122309974559	0.4083083936252185	0.4812183567503052	0.9533350585592	0.07983223977535424	0.6231800451889896	0.29523851295675807	0.017832948146438918	0.6123116931675977	0.5601048842549183	0.02587482307464727	0.5137267854890673	0.7993765896177288	0.07078261285239261	0.4897079586054344	0.9125626021787991	0.0542010058763356	0.4860101385389187	0.9294873534081588	0.009774647635037657	0.5197594172805808	0.9307642426210566
110	1.8333333333333333	0.3399617344308539	0.5659696673188325	0.7061534063625214	0.3507670798550765	0.5880904121581706	1.189476136729498	0.3500213672252818	0.617831151792327	1.6416927038089864	0.278118598063182	0.4100997564658781	1.6343198702353008	0.34339593521010936	0.44442515437362984	1.6526470030596625	0.328633949454875	0.7046479882541425	1.7155834984773726	0.1263702101401568	0.5880397732758218	0.7191800888790649	0.1109991488792674	0.5937111977833014	1.197381744883858	0.11494927129367774	0.6017411574791217	1.6281979767309736	0.13116688430786186	0.4458812093913219	1.665574904156642	0.07874487106856	0.4808627682235677	1.6747282442558913	0.13788201112987655	0.6656210849043667	1.7101087663529115	0.22714722990709785	0.5845310026040116	0.20958645726842054	0.22390638183109718	0.5443989732520181	-0.036249411411809936	0.2156083757524806	0.4814317212599018	0.08255121776536528	0.3805196942769393	0.5751192749444454	0.2947406072034193	0.43128394270394	0.6050442960941902	0.5874753348098685	0.4114241969546031	0.4738679207352815	0.8084311051167224	0.3372575657557566	0.4220554202482729	0.9145216983050365	0.36575548048365125	0.4503550110873737	0.9611848142297901	0.4086898306064568	0.4808429408895643	0.9496038674423734	0.07984227429645817	0.6233900538790687	0.2953114691974556	0.022217611965121595	0.5985921167970226	0.5562399054939223	0.025862819511716432	0.5136944556949093	0.7992705657717389	0.07076342625048597	0.48977003783930273	0.9125338029046741	0.0541417378364407	0.4860200404584898	0.9294172436440264	0.009418686005055202	0.5207093652476646	0.9265994662451229
111	1.85	0.3371767555878617	0.5803562752075943	0.7110811161066035	0.3508106386850813	0.5881202671197678	1.1893929263970213	0.3509583378351531	0.6176216201833571	1.6368816775711814	0.27812549505863327	0.4100155840732619	1.6345495701746708	0.3424148711448231	0.4441862144377891	1.6573473309801903	0.3286086698339906	0.7044414624986176	1.715642348816856	0.12637526871854335	0.5882397359706446	0.7194234163362601	0.11492449362835294	0.5951311569455698	1.1980344532089142	0.11494486630964093	0.6017729250958674	1.6282549209849113	0.13483554505136247	0.43168950995809	1.6557051557210312	0.07876789429530398	0.48071666244075945	1.6746109990309996	0.13790018936402476	0.6656568812547566	1.7102014074580592	0.2271267763006235	0.5845157783525462	0.20965931809096225	0.22389495385764382	0.5442622243641116	-0.036203961063748756	0.21564068942834083	0.48058748353406117	0.08594648645915949	0.3805105328003126	0.5750360450956827	0.29473542955953796	0.4312197589229247	0.6048640412530847	0.587450674445196	0.41142499933186866	0.47395809380695364	0.8085202215728051	0.3407355520195635	0.4321671171996661	0.9227728648758164	0.3706168047085426	0.46066352779705333	0.9657134991607493	0.4046163185658537	0.48055403007684117	0.9495880538875294	0.07986635511057388	0.6235496025783058	0.2953712368446553	0.02218758609434838	0.5986007863220079	0.5561948325522804	0.02600382906155	0.5137514838988709	0.7994051756386786	0.07086207574025162	0.48986974774884645	0.912575509704118	0.05422899855150127	0.4860916604395885	0.9294611226084595	0.009789805847006755	0.519815364785002	0.9307882936511582
112	1.8666666666666667	0.33713081918729615	0.580185639335059	0.7110946576860467	0.3505229187977207	0.5896252055844475	1.1856719769286634	0.34887426206372835	0.6168463913794309	1.6359620283138687	0.2742173363092649	0.3997461776972623	1.6272176859630245	0.3459163350824768	0.4286146338836901	1.6416892254013722	0.32856421160184435	0.7046885626434336	1.7157681129894955	0.12241471070559137	0.6015764663192337	0.7240666783961571	0.11098431045994155	0.5938733069629085	1.1975121226651304	0.11502927374991759	0.6020287882021005	1.6281575577467586	0.13210403697185505	0.44567216595129727	1.6610780478348985	0.07975449627063054	0.48041339259757737	1.670091279051284	0.1367967372136651	0.664288208498921	1.7051514283650873	0.2271897726047579	0.5845059192610622	0.2097288607211129	0.22385631912737644	0.5440632697270916	-0.03620500980801362	0.21170479568692985	0.4699485905773576	0.08484363379067295	0.3806077496110124	0.575144087252338	0.2947817620475467	0.431275796712545	0.6049288098589874	0.5874113599839412	0.4066788094462791	0.4730736855127892	0.808312372707117	0.3366953875329064	0.4219836027005513	0.9185185676146321	0.36570989614696003	0.449943585285623	0.960859121708731	0.4044850865323467	0.48044533393571126	0.9495533394106279	0.07992696277817823	0.6236137511782084	0.2954039995369705	0.022279574580451558	0.5982610276400673	0.55985109606863	0.025843800285596043	0.5138109973160865	0.7994206761418607	0.07017469425888538	0.4889370235472296	0.9079353919325213	0.054141445024374894	0.4859856246280803	0.9293117481874451	0.005302043589232959	0.5331397353975729	0.9364319067635959
113	1.8833333333333333	0.3328755422872359	0.5671683826586021	0.7111838811258289	0.34890114694511287	0.5890705195392747	1.1852935763486157	0.3497608801036061	0.616685211543512	1.6311009140027477	0.2742298429579848	0.39969189651046483	1.6272057449623687	0.3458661237738226	0.42834179760696584	1.6416356417641207	0.3285632019073076	0.7047933232092153	1.7158615908690373	0.12628322399492178	0.588087520206967	0.7194687663285577	0.11091547063727454	0.5938801597709867	1.1974844873211763	0.11498104459282996	0.6018811135177097	1.6281792769874763	0.13570097528137903	0.4314255727524527	1.6511902006147503	0.07874799890263585	0.48082131335960077	1.6746364395103501	0.13790629703447568	0.6657275534364022	1.7101325385030588	0.22720820186704832	0.5843981737081095	0.20975665277293093	0.2238605220324391	0.544059543006238	-0.03624533724786797	0.21167673907876286	0.46984215886071695	0.08484863803797171	0.38066187452609695	0.575048494929203	0.2948505262858962	0.4310516285549145	0.6058996776800855	0.5836888812724663	0.40662882223836627	0.4729374046249634	0.8083595814682341	0.33666960479062624	0.4220349081306933	0.9186603899315503	0.36575523373862745	0.4501598292791502	0.9610557515710085	0.4039428535342242	0.48045536538330574	0.9532749635817644	0.07997769961649619	0.6236297473666862	0.29549468730463657	0.022141935010374127	0.5990049954418211	0.5564319338076574	0.025828935514517086	0.5137978614115704	0.7994660735828881	0.07017534413205305	0.48905130326432145	0.9081129704297316	0.050330425304157406	0.4846609224741084	0.9289157965324747	0.005272690514526782	0.5332560963459559	0.9365870260779767
